<svg width="178" height="200" viewBox="0 0 178 200" fill="none" xmlns="http://www.w3.org/2000/svg">
<path fill-rule="evenodd" clip-rule="evenodd" d="M59.1393 200H158C169.046 200 178 191.046 178 180V20C178 8.95431 169.046 1.99831e-08 158 1.99831e-08L57.0437 0C57.0753 0.00699304 57.1069 0.0139983 57.1384 0.0210158C66.2949 1.95447 73.7776 4.69352 79.5866 8.23818C85.3955 11.7828 89.6292 16.0525 92.2875 21.0473C94.9459 26.042 96.1766 31.5604 95.9797 37.6025L94.2074 96.331C94.109 98.7478 93.6659 100.722 92.8783 102.252C92.0906 103.702 90.7614 104.83 88.8908 105.636C87.0201 106.361 84.5094 106.844 81.3588 107.086C78.3067 107.327 74.5161 107.448 69.9871 107.448C65.3596 107.448 61.5198 107.327 58.4676 107.086C55.4155 106.844 52.954 106.361 51.0834 105.636C49.3111 104.83 48.0312 103.702 47.2435 102.252C46.4559 100.722 46.0128 98.7478 45.9144 96.331L43.9945 33.8564C43.896 30.3117 43.4037 27.4921 42.5176 25.3975C41.6315 23.303 40.3516 21.6918 38.6778 20.5639C37.1025 19.4361 35.1334 18.711 32.7704 18.3888C30.4074 17.986 27.6506 17.7846 24.5 17.7846C21.3494 17.7846 18.5926 17.986 16.2297 18.3888C13.8667 18.711 11.8483 19.4361 10.1746 20.5639C8.59925 21.6918 7.36854 23.303 6.48243 25.3975C5.59632 27.4921 5.10404 30.3117 5.00558 33.8564L0.722708 166.781C0.624252 170.165 0.96885 172.984 1.7565 175.24C2.64262 177.496 4.02101 179.308 5.89169 180.678C7.86083 181.967 10.3715 182.893 13.4236 183.457C16.4758 184.021 20.1679 184.303 24.5 184.303C28.8321 184.303 32.5243 184.021 35.5764 183.457C38.727 182.893 41.2377 181.967 43.1084 180.678C45.0775 179.308 46.4559 177.496 47.2435 175.24C48.0312 172.984 48.3758 170.165 48.2773 166.781L47.6866 152.401C47.5881 149.984 47.8835 148.051 48.5727 146.601C49.3604 145.07 50.6403 143.942 52.4125 143.217C54.2832 142.412 56.7446 141.888 59.7968 141.646C62.8489 141.405 66.6395 141.284 71.1685 141.284C75.5991 141.284 79.1928 141.405 81.9496 141.646C84.8048 141.888 86.9709 142.412 88.4477 143.217C90.023 143.942 91.0568 145.07 91.5491 146.601C92.0414 148.051 92.2383 149.984 92.1398 152.401L91.6968 165.935C91.4999 171.172 90.1215 176.126 87.5616 180.799C85.0017 185.391 81.0142 189.419 75.5991 192.883C71.194 195.753 65.7074 198.125 59.1393 200Z" fill="#2F2F2F"/>
<path d="M129.125 167.875H112.5C111.417 167.875 110.583 167.792 110 167.625C109.417 167.458 108.958 167.167 108.625 166.75C108.333 166.292 108.146 165.667 108.063 164.875C108.021 164.083 108 163.083 108 161.875C108 160.542 108.021 159.458 108.063 158.625C108.146 157.75 108.333 157.062 108.625 156.562C108.958 156.062 109.417 155.729 110 155.562C110.583 155.354 111.417 155.25 112.5 155.25H128.688L128.063 137.5C128.063 136.417 128.208 135.583 128.5 135C128.792 134.375 129.271 133.917 129.938 133.625C130.604 133.333 131.458 133.167 132.5 133.125C133.583 133.042 134.875 133 136.375 133C137.75 133 138.917 133.042 139.875 133.125C140.875 133.167 141.667 133.333 142.25 133.625C142.833 133.917 143.25 134.375 143.5 135C143.792 135.583 143.938 136.417 143.938 137.5L143.313 155.25H159.625C160.667 155.25 161.479 155.354 162.063 155.562C162.688 155.729 163.146 156.062 163.438 156.562C163.771 157.062 163.958 157.75 164 158.625C164.083 159.5 164.125 160.604 164.125 161.938C164.125 163.146 164.083 164.146 164 164.938C163.958 165.688 163.771 166.292 163.438 166.75C163.146 167.167 162.688 167.458 162.063 167.625C161.479 167.792 160.667 167.875 159.625 167.875H142.875L142.313 184.625C142.313 185.708 142.208 186.562 142 187.188C141.792 187.771 141.458 188.208 141 188.5C140.542 188.792 139.938 188.979 139.188 189.062C138.438 189.104 137.479 189.125 136.313 189.125C135.021 189.125 133.958 189.104 133.125 189.062C132.292 188.979 131.625 188.792 131.125 188.5C130.625 188.208 130.25 187.771 130 187.188C129.792 186.562 129.688 185.708 129.688 184.625L129.125 167.875Z" fill="#363636"/>
<path d="M41.7682 104.862C41.8475 104.635 41.9212 104.447 41.9892 104.299C42.0685 104.14 42.1875 104.014 42.3462 103.923C42.5162 103.821 42.7429 103.753 43.0262 103.719C43.3096 103.673 43.6949 103.65 44.1823 103.65C44.6696 103.65 45.0606 103.673 45.3553 103.719C45.6613 103.764 45.888 103.832 46.0354 103.923C46.194 104.014 46.2847 104.14 46.3074 104.299C46.33 104.447 46.3017 104.629 46.2224 104.845L36.2089 132.819C36.1409 133.013 36.0559 133.166 35.9539 133.28C35.8519 133.394 35.7216 133.479 35.5629 133.536C35.4155 133.593 35.2342 133.627 35.0189 133.638C34.8148 133.65 34.5598 133.656 34.2538 133.656C33.5058 133.644 33.0298 133.576 32.8258 133.451C32.6217 133.314 32.6104 133.052 32.7918 132.666L41.7682 104.862Z" fill="#363636"/>
<path d="M14.7722 108L14.7042 108.118L15.5188 111.31C15.5851 111.559 15.6171 111.788 15.6148 111.996C15.6027 112.2 15.5654 112.355 15.5031 112.464C15.4691 112.523 15.4224 112.581 15.3631 112.639C15.3038 112.697 15.2277 112.738 15.1348 112.763C15.0378 112.772 14.9191 112.763 14.7786 112.734C14.6438 112.695 14.4734 112.616 14.2672 112.496L11.7349 111.029C11.5091 110.898 11.3185 110.774 11.1629 110.658C11.0074 110.541 10.88 110.421 10.7808 110.298C10.6773 110.159 10.5943 110.019 10.5317 109.878C10.4649 109.721 10.4045 109.541 10.3506 109.339L9.04824 104.879L9.02334 104.786C8.96678 104.543 9.01314 104.235 9.1624 103.862C9.31733 103.478 9.58181 102.962 9.95583 102.311C10.2562 101.789 10.528 101.362 10.7713 101.03C11.0104 100.682 11.2364 100.426 11.4495 100.26C11.6681 100.085 11.8815 99.9982 12.0895 100.001C12.3033 99.993 12.5349 100.068 12.7844 100.226L35.0693 114.01C35.2893 114.151 35.4454 114.3 35.5375 114.459C35.6254 114.602 35.6528 114.782 35.6195 114.999C35.5918 115.206 35.5113 115.449 35.3779 115.726C35.2446 116.004 35.0645 116.339 34.8379 116.734C34.6112 117.128 34.42 117.437 34.2644 117.662C34.1088 117.888 33.9569 118.049 33.8089 118.147C33.6665 118.236 33.5173 118.267 33.3614 118.243C33.1957 118.212 32.9999 118.132 32.7742 118.001L14.7722 108Z" fill="#363636"/>
<path d="M48.139 124.749L48.071 124.867L48.8856 128.059C48.952 128.308 48.984 128.537 48.9817 128.746C48.9695 128.949 48.9323 129.105 48.8699 129.213C48.8359 129.272 48.7893 129.331 48.73 129.388C48.6707 129.446 48.5946 129.487 48.5017 129.512C48.4047 129.521 48.2859 129.512 48.1455 129.483C48.0107 129.444 47.8402 129.365 47.6341 129.246L45.1017 127.778C44.876 127.647 44.6853 127.523 44.5298 127.407C44.3743 127.29 44.2469 127.171 44.1476 127.047C44.0442 126.909 43.9612 126.769 43.8985 126.627C43.8318 126.47 43.7714 126.291 43.7175 126.089L42.4151 121.629L42.3902 121.535C42.3336 121.292 42.38 120.984 42.5293 120.611C42.6842 120.228 42.9487 119.711 43.3227 119.06C43.623 118.538 43.8948 118.111 44.1381 117.779C44.3772 117.432 44.6033 117.175 44.8163 117.009C45.035 116.834 45.2483 116.747 45.4564 116.75C45.6701 116.742 45.9017 116.817 46.1513 116.975L68.4361 130.759C68.6562 130.9 68.8123 131.049 68.9044 131.208C68.9923 131.351 69.0196 131.531 68.9863 131.748C68.9587 131.955 68.8782 132.198 68.7448 132.475C68.6114 132.753 68.4314 133.089 68.2047 133.483C67.978 133.877 67.7869 134.187 67.6313 134.412C67.4756 134.637 67.3238 134.798 67.1757 134.897C67.0333 134.985 66.8842 135.017 66.7283 134.992C66.5625 134.962 66.3668 134.881 66.141 134.75L48.139 124.749Z" fill="#363636"/>
<path d="M144.834 33.625C144.506 33.3906 144.248 33.1875 144.06 33.0156C143.873 32.8281 143.748 32.6484 143.685 32.4766C143.623 32.2891 143.615 32.1016 143.662 31.9141C143.724 31.7266 143.842 31.5156 144.013 31.2812L146.404 28.0469L142.279 27.0156C141.967 26.9219 141.709 26.8281 141.506 26.7344C141.302 26.625 141.162 26.4688 141.084 26.2656C141.006 26.0625 140.982 25.7891 141.013 25.4453C141.06 25.1016 141.17 24.6484 141.342 24.0859C141.513 23.5234 141.677 23.0859 141.834 22.7734C141.99 22.4453 142.162 22.2109 142.349 22.0703C142.537 21.9141 142.748 21.8359 142.982 21.8359C143.217 21.8359 143.49 21.8906 143.802 22L147.529 23.4297L147.271 17.7109C147.256 17.3828 147.279 17.1094 147.342 16.8906C147.404 16.6562 147.537 16.4766 147.74 16.3516C147.943 16.2266 148.224 16.1406 148.584 16.0938C148.943 16.0312 149.42 16 150.013 16C150.607 16 151.084 16.0234 151.443 16.0703C151.818 16.1172 152.099 16.2109 152.287 16.3516C152.49 16.4766 152.623 16.6484 152.685 16.8672C152.748 17.0859 152.771 17.3594 152.756 17.6875L152.498 23.3828L156.107 22C156.42 21.8906 156.693 21.8359 156.927 21.8359C157.162 21.8359 157.373 21.9141 157.56 22.0703C157.748 22.2109 157.92 22.4453 158.076 22.7734C158.232 23.0859 158.396 23.5234 158.568 24.0859C158.74 24.6484 158.849 25.1016 158.896 25.4453C158.943 25.7891 158.92 26.0625 158.826 26.2656C158.748 26.4688 158.607 26.625 158.404 26.7344C158.217 26.8438 157.959 26.9375 157.631 27.0156L153.552 28.0234L155.967 31.3047C156.138 31.5391 156.248 31.75 156.295 31.9375C156.357 32.125 156.357 32.3047 156.295 32.4766C156.232 32.6484 156.107 32.8281 155.92 33.0156C155.732 33.1875 155.474 33.3906 155.146 33.625C154.818 33.8594 154.537 34.0469 154.302 34.1875C154.084 34.3281 153.881 34.4219 153.693 34.4688C153.506 34.5 153.326 34.4688 153.154 34.375C152.998 34.2812 152.834 34.1172 152.662 33.8828L149.99 30.0859L147.318 33.8828C147.146 34.1172 146.974 34.2812 146.802 34.375C146.646 34.4688 146.474 34.5 146.287 34.4688C146.099 34.4219 145.888 34.3281 145.654 34.1875C145.435 34.0469 145.162 33.8594 144.834 33.625Z" fill="#363636"/>
<path fill-rule="evenodd" clip-rule="evenodd" d="M91.6106 103.898C91.7063 103.856 91.802 103.809 91.8978 103.756C92.4281 103.461 93.0763 102.931 93.8423 102.165L105.598 90.4091L117.84 101.855C118.606 102.621 119.283 103.152 119.873 103.446C120.462 103.682 121.036 103.726 121.596 103.579C122.156 103.432 122.76 103.093 123.408 102.562C124.027 102.003 124.793 101.266 125.706 100.353C126.531 99.5278 127.194 98.8354 127.695 98.2757C128.166 97.6864 128.461 97.1266 128.579 96.5963C128.697 96.0659 128.623 95.5209 128.358 94.9611C128.063 94.3718 127.533 93.6942 126.767 92.9282L115.321 80.6864L127.165 68.8423C127.901 68.1058 128.417 67.4723 128.712 66.942C129.036 66.3822 129.153 65.8519 129.065 65.351C128.977 64.7912 128.682 64.2314 128.181 63.6716C127.68 63.0529 127.003 62.3163 126.148 61.4619C125.205 60.5191 124.395 59.7678 123.718 59.208C123.069 58.6188 122.451 58.2652 121.861 58.1473C121.302 58 120.742 58.0884 120.182 58.4125C119.622 58.6777 118.974 59.1785 118.238 59.9151L106.703 71.4498L95.3266 59.2432L94.6931 80.2364L96.3614 81.7912L94.5928 83.5598L94.2074 96.331C94.109 98.7478 93.6659 100.722 92.8783 102.252C92.5499 102.857 92.1273 103.405 91.6106 103.898Z" fill="#363636"/>
</svg>
